Language: Spanish

Subtitles: English and Portuguese 
 
http://www.imdb.com/title/tt0104774/

Mario and Ana, in voluntary exile from Buenos Aires, live in a remote Argentine valley with their 12-year-old son Ernesto. Mario runs a school and a wool cooperative; Ana, a doctor, heads a clinic with Nelda, a progressive nun. Into this idealistic family comes Hans, a jaded Spanish geological engineer -- surveying the land for the local patron, to see if it can be dammed for hydro-electric power, which would drive the peasants from the land into the cities. 


      Format : AVI
      Format/Info : Audio Video Interleave
      File size : 1.09 GiB
      Duration : 2h 1mn
      Overall bit rate : 1 287 Kbps
   Video #0
      ID : 0
      Format : MPEG-4 Visual
      Format settings, BVOP : Yes
      Format settings, QPel : No
      Format settings, GMC : No warppoints
      Format settings, Matrix : Default (H.263)
      Muxing mode : Packed bitstream
      Codec ID : DX50
      Codec ID/Hint : DivX 5
      Duration : 2h 1mn
      Bit rate : 1 150 Kbps
      Width : 480 pixels
      Height : 352 pixels
      Display aspect ratio : 4:3
      Frame rate : 25.000 fps
      Resolution : 24 bits
      Colorimetry : 4:2:0
      Scan type : Progressive
      Bits/(Pixel*Frame) : 0.272
      Stream size : 995 MiB (89%)
      Writing library : DivX 5.2.1 (WaffleDay) (UTC 2004-09-08)
   Audio #1
      ID : 1
      Format : MPEG Audio
      Format version : Version 1
      Format profile : Layer 3
      Codec ID : 55
      Codec ID/Hint : MP3
      Duration : 2h 1mn
      Bit rate mode : Constant
      Bit rate : 128 Kbps
      Channel(s) : 2 channels
      Sampling rate : 44.1 KHz
      Resolution : 16 bits
      Video delay : 26ms
      Stream size : 111 MiB (10%)
      Alignment : Split accross interleaves
      Interleave, duration : 40 ms (1.00 video frame)
      Title : Audio Stream